<svg width="32" height="32" viewBox="0 0 32 32" xmlns="http://www.w3.org/2000/svg">
  <defs>
    <linearGradient id="goldGrad" x1="0%" y1="0%" x2="100%" y2="100%">
      <stop offset="0%" stop-color="#F5D060"/>
      <stop offset="50%" stop-color="#C7A628"/>
      <stop offset="100%" stop-color="#8B6914"/>
    </linearGradient>
  </defs>
  <g fill="none">
    <circle fill="#0D0824" cx="16" cy="16" r="16"/>
    <circle fill="none" stroke="url(#goldGrad)" stroke-width="1.2" cx="16" cy="16" r="14.5" opacity="0.6"/>
    <!-- Raised fist silhouette -->
    <g transform="translate(10, 6) scale(0.42)" fill="url(#goldGrad)" opacity="0.9">
      <path d="M8 0C6.5 0 5.5 0.8 5 2C4.5 0.8 3.5 0 2 0C0.9 0 0 0.9 0 2V3C0 3.6 0.2 4.1 0.5 4.5C0.2 4.9 0 5.4 0 6V14C0 16.2 1.8 18 4 18H12C14.2 18 16 16.2 16 14V6C16 5.4 15.8 4.9 15.5 4.5C15.8 4.1 16 3.6 16 3V2C16 0.9 15.1 0 14 0C12.5 0 11.5 0.8 11 2C10.5 0.8 9.5 0 8 0ZM8 2C8.6 2 9 2.4 9 3V4H7V3C7 2.4 7.4 2 8 2ZM5 3C5 2.4 5.4 2 6 2V4H5V3ZM11 3V4H10V3C10 2.4 10.4 2 11 2C11 2 11 2.4 11 3ZM14 3C14 3.6 13.6 4 13 4H12V3C12 2.4 12.4 2 13 2C13.6 2 14 2.4 14 3ZM4 6H12C13.1 6 14 6.9 14 8V14C14 15.1 13.1 16 12 16H4C2.9 16 2 15.1 2 14V8C2 6.9 2.9 6 4 6Z"/>
    </g>
    <!-- "T" letter below fist -->
    <text x="16" y="27" text-anchor="middle" font-family="Arial, sans-serif" font-weight="900" font-size="9" fill="url(#goldGrad)" opacity="0.85">T</text>
  </g>
</svg>
